# xmcd
#
# Track frame offsets: 
#        150
#        24132
#        46160
#        69820
#        87955
#
# Disc length: 1708 seconds
#
# Revision: 0
# Processed by: cddbd v1.5.2PL0 Copyright (c) Steve Scherf et al.
# Submitted via: ExactAudioCopy v0.95a5
#
DISCID=2b06aa05
DTITLE=Ladae! - Party 2 Nite
DYEAR=1996
DGENRE=R&B
TTITLE0=Party 2 Nite (LP Flava)
TTITLE1=Party 2 Nite (Ghetto Flava Feat. Grand Puba)
TTITLE2=Party 2 Nite (Fabulous! Flava Feat. Chubb Rock)
TTITLE3=Party 2 Nite (On Line Street Flava Feat. El Hadi)
TTITLE4=Party 2 Nite (Factory 12" Flava)
EXTD=
EXTT0=
EXTT1=
EXTT2=
EXTT3=
EXTT4=
PLAYORDER=
